<svg xmlns="http://www.w3.org/2000/svg" width="512" height="512" viewBox="0 0 512 512" version="1.1">
	<path d="M 228.052 49.624 C 143.186 61.140, 74.106 123.502, 53.633 207.080 C 46.391 236.646, 46.140 273.080, 52.977 302.403 C 73.264 389.406, 144.793 452.893, 234 463.071 C 247.357 464.596, 277.189 463.743, 290 461.472 C 351.396 450.584, 402.322 415.892, 434.559 362.995 C 473.783 298.631, 473.794 213.698, 434.588 149 C 400.609 92.928, 343.381 56.272, 278.500 49.022 C 265.998 47.625, 240.542 47.929, 228.052 49.624 M 239.500 90.106 C 181.703 96.172, 131.094 131.570, 105.967 183.503 C 79.715 237.762, 85.057 302.981, 119.767 352 C 132.303 369.704, 153.664 389.284, 172.378 400.225 C 188.967 409.924, 212.052 417.944, 232.500 421.111 C 242.798 422.707, 269.202 422.707, 279.500 421.111 C 315.290 415.567, 346.111 400.359, 371.827 375.553 C 393.725 354.432, 409.572 327.485, 416.957 298.818 C 421.227 282.240, 422.351 273.320, 422.351 256 C 422.351 238.680, 421.227 229.760, 416.957 213.182 C 396.822 135.016, 319.900 81.667, 239.500 90.106 M 235 214.355 L 235 276.710 289.418 309.355 C 319.348 327.310, 344.068 342, 344.352 342 C 345.364 342, 360.182 316.560, 359.349 316.253 C 358.882 316.081, 337.800 303.630, 312.500 288.585 L 266.500 261.231 266.241 206.615 L 265.983 152 250.491 152 L 235 152 235 214.355" stroke="none" fill="black" fill-rule="evenodd"/>
</svg>